<svg id="visual" viewBox="0 0 1920 1080" width="1920" height="1080" xmlns="http://www.w3.org/2000/svg" xmlns:xlink="http://www.w3.org/1999/xlink" version="1.1"><rect x="0" y="0" width="1920" height="1080" fill="#001220"></rect><path d="M0 751L45.7 747.3C91.3 743.7 182.7 736.3 274.2 740.8C365.7 745.3 457.3 761.7 548.8 753.5C640.3 745.3 731.7 712.7 823 716.2C914.3 719.7 1005.7 759.3 1097 777.7C1188.3 796 1279.7 793 1371.2 775C1462.7 757 1554.3 724 1645.8 709.3C1737.3 694.7 1828.7 698.3 1874.3 700.2L1920 702L1920 1081L1874.3 1081C1828.7 1081 1737.3 1081 1645.8 1081C1554.3 1081 1462.7 1081 1371.2 1081C1279.7 1081 1188.3 1081 1097 1081C1005.7 1081 914.3 1081 823 1081C731.7 1081 640.3 1081 548.8 1081C457.3 1081 365.7 1081 274.2 1081C182.7 1081 91.3 1081 45.7 1081L0 1081Z" fill="#fa7268"></path><path d="M0 797L45.7 799.8C91.3 802.7 182.7 808.3 274.2 811.3C365.7 814.3 457.3 814.7 548.8 809.5C640.3 804.3 731.7 793.7 823 785.2C914.3 776.7 1005.7 770.3 1097 759C1188.3 747.7 1279.7 731.3 1371.2 729.2C1462.7 727 1554.3 739 1645.8 752.5C1737.3 766 1828.7 781 1874.3 788.5L1920 796L1920 1081L1874.3 1081C1828.7 1081 1737.3 1081 1645.8 1081C1554.3 1081 1462.7 1081 1371.2 1081C1279.7 1081 1188.3 1081 1097 1081C1005.7 1081 914.3 1081 823 1081C731.7 1081 640.3 1081 548.8 1081C457.3 1081 365.7 1081 274.2 1081C182.7 1081 91.3 1081 45.7 1081L0 1081Z" fill="#ef5f67"></path><path d="M0 919L45.7 905.7C91.3 892.3 182.7 865.7 274.2 847.7C365.7 829.7 457.3 820.3 548.8 814.2C640.3 808 731.7 805 823 818.5C914.3 832 1005.7 862 1097 865C1188.3 868 1279.7 844 1371.2 842.2C1462.7 840.3 1554.3 860.7 1645.8 867.5C1737.3 874.3 1828.7 867.7 1874.3 864.3L1920 861L1920 1081L1874.3 1081C1828.7 1081 1737.3 1081 1645.8 1081C1554.3 1081 1462.7 1081 1371.2 1081C1279.7 1081 1188.3 1081 1097 1081C1005.7 1081 914.3 1081 823 1081C731.7 1081 640.3 1081 548.8 1081C457.3 1081 365.7 1081 274.2 1081C182.7 1081 91.3 1081 45.7 1081L0 1081Z" fill="#e34c67"></path><path d="M0 912L45.7 907C91.3 902 182.7 892 274.2 893.2C365.7 894.3 457.3 906.7 548.8 913.3C640.3 920 731.7 921 823 923.3C914.3 925.7 1005.7 929.3 1097 923C1188.3 916.7 1279.7 900.3 1371.2 891.8C1462.7 883.3 1554.3 882.7 1645.8 882.5C1737.3 882.3 1828.7 882.7 1874.3 882.8L1920 883L1920 1081L1874.3 1081C1828.7 1081 1737.3 1081 1645.8 1081C1554.3 1081 1462.7 1081 1371.2 1081C1279.7 1081 1188.3 1081 1097 1081C1005.7 1081 914.3 1081 823 1081C731.7 1081 640.3 1081 548.8 1081C457.3 1081 365.7 1081 274.2 1081C182.7 1081 91.3 1081 45.7 1081L0 1081Z" fill="#d53867"></path><path d="M0 947L45.7 953.3C91.3 959.7 182.7 972.3 274.2 974.7C365.7 977 457.3 969 548.8 975C640.3 981 731.7 1001 823 998.7C914.3 996.3 1005.7 971.7 1097 959.2C1188.3 946.7 1279.7 946.3 1371.2 947.5C1462.7 948.7 1554.3 951.3 1645.8 959.5C1737.3 967.7 1828.7 981.3 1874.3 988.2L1920 995L1920 1081L1874.3 1081C1828.7 1081 1737.3 1081 1645.8 1081C1554.3 1081 1462.7 1081 1371.2 1081C1279.7 1081 1188.3 1081 1097 1081C1005.7 1081 914.3 1081 823 1081C731.7 1081 640.3 1081 548.8 1081C457.3 1081 365.7 1081 274.2 1081C182.7 1081 91.3 1081 45.7 1081L0 1081Z" fill="#c62368"></path></svg>